<?xml version="1.0" encoding="utf-8"?>
<svg viewBox="0 0 86 86" fill="none" xmlns="http://www.w3.org/2000/svg">
  <ellipse style="paint-order: fill markers; fill: rgb(0, 0, 0); stroke: rgb(255, 153, 0);" cx="43" cy="43" rx="43" ry="43"/>
  <path d="M 67.375 47.113 C 70.759 39.374 63.881 34.008 54.888 31.376 C 55.564 29.529 55.76 27.113 53.852 24.805 C 51.406 21.852 53.032 17.55 53.032 17.55 C 53.032 17.55 47.896 23.237 51.139 27.158 C 52.335 28.604 52.958 29.873 53.255 30.934 C 50.773 30.32 48.259 29.904 45.73 29.689 C 46.485 27.225 46.559 24.13 44.179 21.166 C 40.921 17.103 43.091 11.187 43.091 11.187 C 43.091 11.187 36.242 19.007 40.566 24.398 C 42.145 26.364 42.976 28.095 43.379 29.545 C 40.699 29.449 38.119 29.59 35.828 29.975 C 36.101 28.389 35.873 26.566 34.417 24.806 C 31.97 21.853 33.597 17.55 33.597 17.55 C 33.597 17.55 28.46 23.237 31.704 27.158 C 32.72 28.386 33.315 29.483 33.657 30.438 C 33.27 30.54 32.895 30.65 32.533 30.77 C 21.366 29.516 16.496 32.285 18.721 37.719 C 14.838 42.381 16.297 47.701 21.156 51.772 C 23.691 64.307 24.344 74.813 43.438 74.813 C 60.476 74.813 62.83 66.446 64.94 55.738 C 71.272 54.225 69.923 50.581 67.375 47.113 Z M 65.797 45.861 C 63.676 51.29 54.472 55.377 43.438 55.377 C 32.405 55.377 23.201 51.29 21.079 45.861 C 21.034 45.7 20.991 45.532 20.948 45.369 C 21.958 42.292 25.242 39.621 29.855 37.834 C 28.771 39.091 28.546 40.969 31.398 41.628 C 32.214 41.817 34.455 41.163 33.476 37.825 C 33.339 37.359 33.115 37.046 32.841 36.857 C 36.01 35.986 39.608 35.485 43.438 35.485 C 43.867 35.485 44.289 35.503 44.712 35.514 C 42.502 36.456 40.699 39.357 45.212 40.213 C 46.208 40.402 48.944 39.749 47.748 36.41 C 47.643 36.113 47.476 35.853 47.262 35.658 C 51.49 36.031 55.321 37.009 58.418 38.418 C 55.695 38.235 52.674 40.25 57.512 43.087 C 58.55 43.696 61.703 44.255 61.27 40.568 C 61.238 40.302 61.16 40.047 61.04 39.82 C 63.516 41.386 65.243 43.285 65.927 45.369 L 65.797 45.861 Z" fill="#D1D1D2"/>
  <path d="M 37.434 44.954 C 40.221 44.954 42.08 42.139 43.536 41.037 C 45.571 39.496 50.688 38.895 46.182 38.774 C 41.908 38.659 36.631 42.535 33.104 42.268 C 27.265 41.825 33.246 44.954 37.434 44.954 Z M 43.457 50.705 C 44.442 50.917 47.148 50.183 45.965 46.434 C 44.627 42.192 36.532 49.216 43.457 50.705 Z M 28.13 41.426 C 27.189 39.943 25.825 38.062 25.26 39.042 C 24.489 40.381 24.245 43.077 24.806 43.196 C 29.2 44.137 28.892 42.627 28.13 41.426 Z M 53.674 42.027 C 54.466 40.931 52.884 38.293 51.868 38.755 C 50.278 39.477 49.362 38.988 48.663 40.084 C 47.028 42.65 52.597 43.515 53.674 42.027 Z M 53.179 45.168 C 52.039 44.606 52.308 46.487 50.624 44.978 C 49.419 43.897 46.825 46.623 48.536 48.474 C 50.44 50.534 50.947 48.576 51.747 48.741 C 53.373 49.075 56.169 46.641 53.179 45.168 Z M 34.225 45.811 C 33.631 45.158 32.834 45.946 32.384 46.907 C 31.938 46.662 31.575 46.605 31.575 46.605 C 31.235 45.521 30.222 44.778 30.222 44.778 C 30.222 44.778 30.314 45.905 30.448 46.455 C 29.328 46.011 29.294 43.777 29.294 43.777 C 29.294 43.777 28.543 44.279 28.611 45.131 C 27.379 44.021 26.33 44.54 26.33 44.54 C 26.33 44.54 27.893 45.522 28.108 46.185 C 27.231 46.261 26.718 46.6 26.42 47.388 C 26.421 47.395 28.155 46.467 29.438 47.137 C 28.932 47.599 29.184 48.754 29.184 48.754 C 30.378 47.34 31.331 47.491 32.095 47.745 C 32.002 48.177 32.008 48.572 32.172 48.812 C 33.496 50.755 38.106 50.318 39.344 48.881 C 40.844 47.143 36.677 48.507 34.225 45.811 Z" fill="#FF9900"/>
  <path d="M 37.717 38.447 C 37.318 39.286 37.315 39.919 37.777 40.578 C 37.783 40.58 37.963 38.543 39.158 37.699 C 39.255 38.387 40.289 38.721 40.289 38.721 C 39.463 35.66 41.877 35.5 41.865 34.402 C 40.585 34.515 39.858 35.487 39.858 35.487 C 38.832 35.268 37.72 35.829 37.72 35.829 C 37.72 35.829 38.651 36.296 39.151 36.443 C 38.219 37.248 36.452 36.187 36.452 36.187 C 36.452 36.187 36.452 37.119 37.155 37.472 C 35.642 38.055 35.5 39.266 35.5 39.266 C 35.5 39.266 37.085 38.32 37.717 38.447 Z M 60.147 42.628 C 60.511 41.906 59.981 41.157 59.981 41.157 C 59.981 41.157 59.165 43.108 57.958 43.041 C 58.276 42.612 58.759 41.658 58.759 41.658 C 58.759 41.658 57.545 41.899 56.845 42.713 C 56.845 42.713 55.707 42.384 54.615 43.088 C 55.231 43.978 57.263 42.605 58.34 45.579 C 58.34 45.579 58.981 44.668 58.667 44.054 C 60.109 43.989 61.413 45.514 61.418 45.509 C 61.412 44.692 61.051 44.186 60.251 43.76 C 60.686 43.265 62.5 43.041 62.5 43.041 C 62.5 43.041 61.696 42.155 60.147 42.628 Z" fill="#D1D1D2"/>
</svg>